<!-- Question designed by Henry Ryder from The Noun Project -->
<svg
  xmlns:dc="http://purl.org/dc/elements/1.1/"
  xmlns:cc="http://creativecommons.org/ns#"
  xmlns:rdf="http://www.w3.org/1999/02/22-rdf-syntax-ns#"
  xmlns:svg="http://www.w3.org/2000/svg"
  xmlns="http://www.w3.org/2000/svg"
  version="1.1"
  width="100"
  height="100"
  viewBox="0 0 100 100"
  id="svg-question"
  xml:space="preserve">
  <g id="quote" style="display:none">
    <polygon
      points="11.119,16.378 11.119,50.713 29.547,77.188 42.673,67.431 31.152,50.713 45.454,50.713 45.454,16.378 "
      id="polygon3055"
      style="display:inline" />
    <polygon
      points="53.192,16.378 53.192,50.713 71.621,77.188 84.747,67.431 73.226,50.713 87.528,50.713 87.528,16.378 "
      id="polygon3057"
      style="display:inline" />
  </g>
  <g transform="matrix(1.0579324,0,0,1.0579324,-3.1410024,-4.2872721)" id="question">
    <path
      d="m 85.871,8.649 h -71.28 c -6.418,0 -11.622,5.204 -11.622,11.622 v 52.493 c 0,6.419 5.203,11.623 11.622,11.623 h 9.113 l 0.005,9.593 11.995,-9.593 h 50.167 c 6.419,0 11.622,-5.204 11.622,-11.623 V 20.271 C 97.493,13.853 92.29,8.649 85.871,8.649 z M 54.03,71.383 H 44.022 V 61.374 H 54.03 v 10.009 z m 6.922,-25.06 c -4.144,1.583 -6.801,4.637 -6.801,9.194 H 43.9 c 0,-11.616 7.412,-15.111 12.133,-16.251 2.895,-0.699 5.68,-1.612 5.837,-5.55 0.127,-3.175 -1.732,-7.088 -9.608,-6.931 -8.728,0.175 -9.312,6.569 -9.34,8.69 l -10.251,0.127 c -0.013,-0.696 0.004,-6.946 4.86,-11.901 3.597,-3.671 8.696,-5.532 15.155,-5.532 15.059,0 18.809,9.585 19.039,14.646 0.384,8.462 -6.272,11.789 -10.773,13.508 z"
      id="path3060" />
  </g>
</svg>
