<!-- Copyright 2013 Teradata Corp. -->
<svg
  xmlns:dc="http://purl.org/dc/elements/1.1/"
  xmlns:cc="http://creativecommons.org/ns#"
  xmlns:rdf="http://www.w3.org/1999/02/22-rdf-syntax-ns#"
  xmlns:svg="http://www.w3.org/2000/svg"
  xmlns="http://www.w3.org/2000/svg"
  version="1.1"
  width="376.57501"
  height="48.674999"
  viewBox="0 0 376.57501 48.674999"
  id="teradata-labs-logo-h"
  xml:space="preserve">
  <defs id="defs6">
    <clipPath id="clipPath18">
      <path
        d="m 0,0 3012.57,0 0,389 L 0,389 0,0 z"
        id="path20" />
    </clipPath>
  </defs>
  <g transform="matrix(1.25,0,0,-1.25,0,48.675)" id="g10">
    <g transform="scale(0.1,0.1)" id="g12">
      <g clip-path="url(#clipPath18)" id="g16">
        <path
        d="m 1760.38,112.258 c -3.17,2.773 -4.78,8.113 -4.78,15.926 l 0,180.089 -43.93,0 0,-180.421 c 0,-20.829 6.19,-36.9614 18.33,-47.8637 11.38,-10.6719 27.75,-16.0899 48.64,-16.0899 l 93.08,0 0,43.9136 -93.75,0 c -8.27,0 -14.2,1.497 -17.59,4.446"
        id="path22"
        style="fill:#5d92a6;fill-opacity:1;fill-rule:nonzero;stroke:none" />
       <path
        d="m 2035.29,156.691 -62.66,0 30.89,86.524 31.77,-86.524 z m -32.09,153.926 c -13.65,0 -24.04,-9.211 -30.87,-27.422 l -80.46,-219.2966 46.76,0 18.28,48.8356 94.43,0 18.11,-48.8356 46.72,0 -79.78,219.0236 c -6.81,18.379 -17.97,27.695 -33.19,27.695"
        id="path24"
        style="fill:#5d92a6;fill-opacity:1;fill-rule:nonzero;stroke:none" />
       <path
        d="m 2257.85,207.207 -72.9,0 0,57.129 72.24,0 c 0.8,0 1.58,-0.125 2.99,-0.566 13.91,-2.84 15.7,-10.157 15.7,-16.219 l 0,-22.531 c 0,-5.586 -1.58,-9.852 -4.84,-13.036 -3.29,-3.214 -7.59,-4.777 -13.19,-4.777 z m -72.9,-43.934 72.58,0 c 3.06,0 5.86,-0.617 8.52,-1.855 9.83,-4.633 9.83,-10.031 9.83,-11.809 l 0,-22.07 c 0,-2.871 -1.02,-6.086 -3,-9.519 -4.02,-6.965 -9.12,-10.208 -16.03,-10.208 l -71.9,0 0,55.461 z m 80.6,145 -123.86,0 0,-244.3589 5.03,-0.0157 c 38.16,-0.2382 66.83,-0.332 86.03,-0.332 17.15,0 26.16,0.1172 28.8,0.332 26.88,0 58.92,11.375 58.92,65.6326 l 0,21.758 c 0,3.914 -0.27,6.68 -0.74,8.301 -2.38,12.324 -7.49,21.633 -15.31,27.773 10.66,8.996 16.05,21.809 16.05,38.203 l 0,28.106 c 0,6.199 -1.24,12.461 -3.7,18.613 -9.5,23.879 -26.74,35.988 -51.22,35.988"
        id="path26"
        style="fill:#5d92a6;fill-opacity:1;fill-rule:nonzero;stroke:none" />
       <path
        d="m 2418.81,264.004 c 0.76,0 1.55,0.117 2.41,0.332 l 102.72,0 0,43.937 -100.11,0 c -12.9,0 -22.59,-1.582 -29.58,-4.824 -21.04,-9.797 -31.71,-28.234 -31.71,-54.789 l 0,-29.781 c 0,-16.098 6.54,-29.27 19.48,-39.191 11.8,-8.887 25.8,-13.387 41.64,-13.387 l 35.24,0 c 1.67,0 2.2,-0.117 3.04,-0.293 14.83,-1.895 16.73,-8.567 16.73,-14.172 l 0,-29.902 c 0,-3.528 -1.4,-6.551 -4.29,-9.286 -3.07,-2.921 -6.4,-4.503 -9.71,-4.836 l -102.13,0 0,-43.9136 102.25,0 c 12.33,0 23.75,3.5625 33.92,10.6055 15.84,10.9766 23.89,26.4651 23.89,45.9841 l 0,36.817 c 0,17.707 -8.98,31.797 -26.64,41.875 -9.65,5.547 -20.18,8.359 -31.29,8.359 l -41.17,0 c -11.93,0 -17.01,5.789 -17.01,19.375 l 0,23.086 c 0,8.445 3.92,12.656 12.32,14.004"
        id="path28"
        style="fill:#5d92a6;fill-opacity:1;fill-rule:nonzero;stroke:none" />
       <path
        d="m 2801.68,184.543 -49.38,-53.262 -49.39,53.262 98.77,0"
        id="path30"
        style="fill:#f57300;fill-opacity:1;fill-rule:nonzero;stroke:none" />
       <path
        d="m 2701.46,203.137 101.68,0 0,186.25 -101.68,0 0,-186.25 z"
        id="path32"
        style="fill:#3a728a;fill-opacity:1;fill-rule:nonzero;stroke:none" />
       <path
        d="M 2641.6,0.695312 2741.8,115.906 2686.8,175.148 2535.51,0.613281 2641.6,0.695312"
        id="path34"
        style="fill:#3a728a;fill-opacity:1;fill-rule:nonzero;stroke:none" />
       <path
        d="M 2863.02,0.695312 2762.83,115.906 2817.85,175.148 2969.26,0.613281 2863.02,0.695312"
        id="path36"
        style="fill:#3a728a;fill-opacity:1;fill-rule:nonzero;stroke:none" />
       <path
        d="M 276.738,385.48 9.41406,385.48 0,354.855 l 122.754,0 0,-306.4253 c 0,-16.1328 9.707,-24.3985 28.34,-24.3985 l 16.172,0 0,330.8238 100.039,0 9.433,30.625 z m 843.442,-76.054 c -10.75,0 -19.71,-3.574 -21.84,-8.965 l -88.95,-236.6407 16.49,0 c 17.95,0 25.83,1.4453 31.21,16.1524 l 19.9,55.6403 53.61,0 -7.89,26.528 -37.1,0 33.14,93.496 59.88,-175.6643 c 5,-14.7071 13.63,-16.1524 32.97,-16.1524 l 20.82,0 -90.36,236.6407 c -2.16,5.391 -11.84,8.965 -21.88,8.965 z m 358.71,-8.965 c -2.14,5.391 -11.82,8.965 -21.88,8.965 -10.75,0 -19.71,-3.574 -21.86,-8.965 l -88.92,-236.6407 16.48,0 c 17.94,0 25.84,1.4453 31.21,16.1524 l 19.91,55.6403 53.59,0 -7.87,26.528 -37.11,0 33.17,93.496 59.86,-175.6643 c 5,-14.7071 13.63,-16.1524 32.99,-16.1524 l 20.8,0 -90.37,236.6407 z m -785.128,8.965 c -10.774,0 -19.739,-3.574 -21.867,-8.965 L 586.348,72.8438 522.715,169.602 c 33.34,5.718 53.066,23.652 53.066,53.789 l 0,21.132 c 0,43.75 -40.527,61.68 -94.297,61.68 l -75.293,0 0,-215.8592 -97.05,0 c -38.371,0 -46.953,8.6093 -46.953,48.0622 l 0,42.66 72.05,0 7.891,26.895 -79.941,0 0,71.348 105.761,0 8.262,26.894 -158.145,0 0,-167.797 c 0,-56.3044 13.282,-74.5857 90,-74.5857 l 142.227,0.7422 0,214.7465 31.191,0 c 34.063,0 51.282,-11.836 51.282,-35.137 l 0,-20.781 c 0,-23.672 -21.536,-31.196 -47.707,-31.196 l -19.707,0 66.679,-114.0388 c 7.531,-13.2617 11.133,-14.3359 28.692,-14.3359 l 38.73,0 c 17.918,0 25.82,1.4453 31.199,16.1524 l 19.914,55.6403 53.606,0 -7.883,26.528 -37.109,0 33.144,93.496 59.864,-175.6643 c 5.019,-14.7071 13.632,-16.1524 33,-16.1524 l 20.789,0 -90.364,236.6407 c -2.136,5.391 -11.824,8.965 -21.851,8.965 z M 965.664,163.488 c 0,-49.125 -16.133,-73.1442 -59.531,-73.1442 l -39.434,0 0,188.9652 38.008,0 c 44.824,0 60.957,-26.172 60.957,-75.293 l 0,-40.528 z m 44.106,40.875 c 0,68.125 -34.782,101.84 -105.063,101.84 l -82.09,0 0,-218.0077 c 0,-16.1328 8.965,-24.375 27.598,-24.375 l 54.492,0 9.141,0.1719 c 65.41,2.3672 95.922,31.2734 95.922,99.4958 l 0,40.875 z m 386.4,101.625 -201.27,0 -8.26,-26.894 82.53,0 0,-191.2307 c 0,-16.1524 9.69,-24.418 28.34,-24.418 l 16.15,0 0,215.6487 74.62,0 7.89,26.894"
        id="path38"
        style="fill:#f57300;fill-opacity:1;fill-rule:nonzero;stroke:none" />
       <path
        d="m 1604.56,91.6523 c -0.98,0.5665 -2.61,0.8594 -4.8,0.8594 l -3.43,0 0,-8.2422 3.61,0 c 1.7,0 2.97,0.1758 3.81,0.5078 1.56,0.625 2.34,1.793 2.34,3.5508 0,1.6602 -0.52,2.7774 -1.53,3.3242 z m -4.31,3.5899 c 2.84,0 4.91,-0.2695 6.22,-0.7969 2.36,-0.9765 3.52,-2.9141 3.52,-5.7617 0,-2.0313 -0.75,-3.5547 -2.23,-4.5117 -0.8,-0.4883 -1.88,-0.8789 -3.29,-1.0977 1.79,-0.2695 3.09,-1.0312 3.92,-2.2226 0.81,-1.1954 1.24,-2.3633 1.24,-3.5352 l 0,-1.6602 c 0,-0.5273 0.02,-1.0781 0.04,-1.6796 0.05,-0.625 0.12,-0.9961 0.21,-1.1954 l 0.15,-0.2929 -3.77,0 c -0.03,0.082 -0.06,0.1601 -0.07,0.2383 -0.03,0.0937 -0.04,0.1562 -0.06,0.2539 l -0.09,0.7422 0,1.7968 c 0,2.6172 -0.72,4.3516 -2.13,5.2149 -0.82,0.4648 -2.33,0.7187 -4.42,0.7187 l -3.16,0 0,-8.9648 -4.01,0 0,22.7539 7.93,0 z m -12.15,1.1562 c -3.45,-3.4765 -5.17,-7.6992 -5.17,-12.6172 0,-4.9414 1.71,-9.1796 5.16,-12.6757 3.43,-3.4961 7.65,-5.2539 12.57,-5.2539 4.97,0 9.15,1.7578 12.61,5.2539 3.45,3.4961 5.19,7.7343 5.19,12.6757 0,4.918 -1.74,9.1407 -5.19,12.6172 -3.47,3.4727 -7.68,5.2346 -12.61,5.2346 -4.9,0 -9.08,-1.7619 -12.56,-5.2346 z m 27.21,-27.2656 c -4.02,-4.0625 -8.92,-6.0976 -14.65,-6.0976 -5.74,0 -10.6,2.0351 -14.64,6.0976 -3.98,4.043 -5.98,8.9258 -5.98,14.6875 0,5.7031 2,10.5664 6.05,14.6094 4.01,4.0193 8.89,6.0353 14.57,6.0353 5.73,0 10.63,-2.016 14.65,-6.0353 4.07,-4.0235 6.08,-8.8867 6.08,-14.6094 0,-5.7461 -2.01,-10.625 -6.08,-14.6875"
        id="path40"
        style="fill:#f57300;fill-opacity:1;fill-rule:nonzero;stroke:none" />
       <path
        d="m 2995.74,28.6133 c -0.97,0.5664 -2.61,0.8594 -4.8,0.8594 l -3.43,0 0,-8.2422 3.61,0 c 1.7,0 2.97,0.1757 3.81,0.5078 1.56,0.625 2.35,1.7969 2.35,3.5547 0,1.6601 -0.53,2.7734 -1.54,3.3203 z m -4.3,3.5937 c 2.83,0 4.9,-0.2734 6.22,-0.8008 2.35,-0.9765 3.51,-2.9101 3.51,-5.7617 0,-2.0312 -0.75,-3.5547 -2.22,-4.5117 -0.81,-0.4883 -1.89,-0.8789 -3.3,-1.0937 1.79,-0.2735 3.09,-1.0352 3.92,-2.2266 0.81,-1.1914 1.24,-2.3633 1.24,-3.5352 l 0,-1.6601 c 0,-0.5274 0.02,-1.0742 0.04,-1.6797 0.05,-0.625 0.12,-0.99609 0.21,-1.19141 l 0.15,-0.29297 -3.77,0 c -0.03,0.07813 -0.06,0.15626 -0.07,0.23438 -0.03,0.09766 -0.04,0.15625 -0.06,0.25391 l -0.09,0.74219 0,1.7969 c 0,2.6172 -0.72,4.3554 -2.13,5.2148 -0.82,0.4688 -2.33,0.7227 -4.42,0.7227 l -3.16,0 0,-8.96488 -4,0 0,22.75388 7.93,0 z m -12.16,1.1524 c -3.45,-3.4766 -5.17,-7.6953 -5.17,-12.6172 0,-4.9414 1.71,-9.1797 5.16,-12.67579 3.44,-3.4961 7.65,-5.25391 12.58,-5.25391 4.96,0 9.15,1.75781 12.6,5.25391 3.45,3.49609 5.19,7.73439 5.19,12.67579 0,4.9219 -1.74,9.1406 -5.19,12.6172 -3.46,3.4765 -7.68,5.2344 -12.6,5.2344 -4.91,0 -9.09,-1.7579 -12.57,-5.2344 z M 3006.49,6.09375 C 3002.47,2.03125 2997.57,0 2991.85,0 c -5.75,0 -10.61,2.03125 -14.65,6.09375 -3.98,4.04295 -5.98,8.92575 -5.98,14.68745 0,5.7032 2,10.5665 6.06,14.6094 4,4.0235 8.88,6.0352 14.57,6.0352 5.72,0 10.62,-2.0117 14.64,-6.0352 4.07,-4.0234 6.08,-8.8867 6.08,-14.6094 0,-5.7421 -2.01,-10.625 -6.08,-14.68745"
        id="path42"
        style="fill:#3a728a;fill-opacity:1;fill-rule:nonzero;stroke:none" />
      </g>
    </g>
  </g>
</svg>
