<!-- Copyright 2013 Teradata Corp. -->
<svg
  xmlns:dc="http://purl.org/dc/elements/1.1/"
  xmlns:cc="http://creativecommons.org/ns#"
  xmlns:rdf="http://www.w3.org/1999/02/22-rdf-syntax-ns#"
  xmlns:svg="http://www.w3.org/2000/svg"
  xmlns="http://www.w3.org/2000/svg"
  version="1.1"
  width="504.32501"
  height="112.425"
  viewBox="0 0 504.32501 112.425"
  id="svg-teradata-logo"
  xml:space="preserve">
  <defs id="defs3043">
    <clipPath id="clipPath3055">
      <path
        d="m 0,0 4034.58,0 0,899 L 0,899 0,0 z"
        id="path3057" />
    </clipPath>
  </defs>
  <g transform="matrix(1.25,0,0,-1.25,0,112.425)" id="g3047">
    <g transform="scale(0.1,0.1)" id="g3049">
      <g id="g3051">
        <g clip-path="url(#clipPath3055)" id="g3053">
          <path style="fill: rgb(245,115,0);" 
            d="m 688.633,899.387 -665.215,0 L 0,823.176 l 305.438,0 0,-762.4612 C 305.438,20.5664 329.578,0 375.969,0 l 40.222,0 0,823.176 248.946,0 23.496,76.211 z M 2787.42,710.137 c -26.76,0 -49.06,-8.922 -54.4,-22.301 l -221.29,-588.8438 41.03,0 c 44.62,0 64.26,3.6058 77.65,40.1798 l 49.53,138.476 133.4,0 -19.64,66.004 -92.31,0 82.48,232.668 148.99,-437.148 c 12.46,-36.574 33.88,-40.1798 82.06,-40.1798 l 51.77,0 -224.85,588.8438 c -5.35,13.379 -29.44,22.301 -54.42,22.301 z m 892.59,-22.301 c -5.34,13.379 -29.43,22.301 -54.43,22.301 -26.76,0 -49.07,-8.922 -54.41,-22.301 l -221.29,-588.8438 41.03,0 c 44.63,0 64.28,3.6058 77.65,40.1798 l 49.55,138.476 133.38,0 -19.62,66.004 -92.33,0 82.51,232.668 148.97,-437.148 c 12.46,-36.574 33.89,-40.1798 82.06,-40.1798 l 51.77,0 -224.84,588.8438 z m -1953.7,22.301 c -26.79,0 -49.09,-8.922 -54.43,-22.301 l -212.83,-566.41 -158.36,240.793 c 82.96,14.258 132.04,58.867 132.04,133.82 l 0,52.637 c 0,108.847 -100.81,153.449 -234.63,153.449 l -187.37,0 0,-537.113 -241.5,0 c -95.468,0 -116.859,21.426 -116.859,119.59 l 0,106.152 179.328,0 19.617,66.91 -198.945,0 0,177.551 263.203,0 20.531,66.91 -393.476,0 0,-417.523 c 0,-140.098 33.016,-185.6098 223.933,-185.6098 l 353.908,1.8358 0,534.387 77.63,0 c 84.76,0 127.59,-29.461 127.59,-87.445 l 0,-51.731 c 0,-58.922 -53.55,-77.633 -118.71,-77.633 l -49.03,0 165.94,-283.726 c 18.74,-33 27.66,-35.6878 71.37,-35.6878 l 96.39,0 c 44.58,0 64.24,3.6058 77.64,40.1798 l 49.55,138.476 133.38,0 -19.61,66.004 -92.35,0 82.48,232.668 148.97,-437.148 c 12.48,-36.574 33.91,-40.1798 82.11,-40.1798 l 51.74,0 -224.87,588.8438 c -5.32,13.379 -29.41,22.301 -54.38,22.301 z M 2402.9,347.023 c 0,-122.207 -40.12,-182.011 -148.11,-182.011 l -98.13,0 0,470.203 94.57,0 c 111.55,0 151.67,-65.137 151.67,-187.352 l 0,-100.84 z m 109.74,101.7 c 0,169.515 -86.52,253.402 -261.41,253.402 l -204.29,0 0,-542.469 c 0,-40.133 22.3,-60.6638 68.69,-60.6638 l 135.6,0 22.76,0.4336 c 162.75,5.9062 238.65,77.8122 238.65,247.5972 l 0,101.7 z m 961.53,252.914 -500.82,0 -20.55,-66.973 205.35,0 0,-475.855 c 0,-40.164 24.11,-60.7348 70.51,-60.7348 l 40.2,0 0,536.5898 185.67,0 19.64,66.973"
            id="path3059" />
          <path style="fill: rgb(245,115,0);" 
            d="m 3992.74,168.262 c -2.48,1.422 -6.49,2.133 -11.99,2.133 l -8.48,0 0,-20.5 8.96,0 c 4.21,0 7.37,0.421 9.46,1.253 3.88,1.54 5.83,4.497 5.83,8.848 0,4.129 -1.29,6.875 -3.78,8.266 z m -10.71,8.941 c 7.01,0 12.17,-0.683 15.43,-2.015 5.85,-2.438 8.78,-7.223 8.78,-14.352 0,-5.039 -1.86,-8.781 -5.55,-11.172 -1.97,-1.262 -4.7,-2.187 -8.18,-2.738 4.42,-0.711 7.66,-2.555 9.71,-5.574 2.05,-2.969 3.08,-5.887 3.08,-8.75 l 0,-4.114 c 0,-1.343 0.06,-2.73 0.15,-4.215 0.09,-1.515 0.27,-2.492 0.5,-2.961 l 0.38,-0.703 -9.42,0 c -0.05,0.176 -0.09,0.383 -0.13,0.559 -0.08,0.195 -0.12,0.418 -0.15,0.644 l -0.21,1.821 0,4.496 c 0,6.516 -1.78,10.832 -5.33,12.945 -2.07,1.188 -5.76,1.801 -11,1.801 l -7.82,0 0,-22.266 -10.01,0 0,56.594 19.77,0 z m -30.26,2.852 c -8.59,-8.653 -12.9,-19.094 -12.9,-31.36 0,-12.363 4.27,-22.879 12.83,-31.582 8.58,-8.711 19.04,-13.054 31.34,-13.054 12.29,0 22.75,4.343 31.34,13.054 8.6,8.703 12.91,19.219 12.91,31.582 0,12.266 -4.31,22.707 -12.91,31.36 -8.64,8.683 -19.09,13.054 -31.34,13.054 -12.21,0 -22.63,-4.371 -31.27,-13.054 z m 67.71,-67.852 c -10.04,-10.098 -22.19,-15.1757 -36.47,-15.1757 -14.25,0 -26.4,5.0777 -36.41,15.1757 -9.94,10.078 -14.92,22.235 -14.92,36.559 0,14.183 5.02,26.297 15.07,36.34 10.01,10.011 22.12,15.035 36.26,15.035 14.28,0 26.43,-5.024 36.47,-15.035 10.07,-10.004 15.1,-22.098 15.1,-36.34 0,-14.274 -5.03,-26.442 -15.1,-36.559"
            id="path3061" />
        </g>
      </g>
    </g>
  </g>
</svg>
